<svg width="16" height="17" viewBox="0 0 16 17" fill="#8591A3" xmlns="http://www.w3.org/2000/svg">
    <path fill-rule="evenodd" clip-rule="evenodd" d="M12.7737 2.80984C12.8864 2.50512 13.3219 2.50512 13.4347 2.80984C13.6499 3.39149 14.1085 3.85009 14.6901 4.06532C14.9949 4.17807 14.9949 4.61357 14.6901 4.72633C14.1085 4.94156 13.6499 5.40016 13.4347 5.98181C13.3219 6.28653 12.8864 6.28653 12.7737 5.98181C12.5584 5.40016 12.0998 4.94156 11.5182 4.72633C11.2135 4.61357 11.2135 4.17807 11.5182 4.06532C12.0998 3.85009 12.5584 3.39149 12.7737 2.80984ZM6.75507 4.2204C6.86783 3.91568 7.29882 3.91568 7.41157 4.2204L7.70959 5.02577C8.28354 6.57685 9.50646 7.79978 11.0575 8.37373L11.8629 8.67174C12.1676 8.7845 12.1676 9.21548 11.8629 9.32824L11.0575 9.62625C9.50646 10.2002 8.28354 11.4231 7.70959 12.9742L7.41157 13.7796C7.29882 14.0843 6.86783 14.0843 6.75507 13.7796L6.45706 12.9742C5.88311 11.4231 4.66018 10.2002 3.10911 9.62625L2.30373 9.32824C1.99902 9.21548 1.99902 8.7845 2.30373 8.67174L3.10911 8.37373C4.66018 7.79978 5.88311 6.57685 6.45706 5.02577L6.75507 4.2204ZM13.4347 12.0182C13.3219 11.7135 12.8864 11.7135 12.7737 12.0182C12.5584 12.5998 12.0998 13.0584 11.5182 13.2737C11.2135 13.3864 11.2135 13.8219 11.5182 13.9347C12.0998 14.1499 12.5584 14.6085 12.7737 15.1901C12.8864 15.4949 13.3219 15.4949 13.4347 15.1901C13.6499 14.6085 14.1085 14.1499 14.6901 13.9347C14.9949 13.8219 14.9949 13.3864 14.6901 13.2737C14.1085 13.0584 13.6499 12.5998 13.4347 12.0182Z"/>
</svg>
